<?xml version="1.0" encoding="UTF-8" standalone="no"?>
<!-- Created with Inkscape (http://www.inkscape.org/) -->

<svg
   version="1.1"
   id="svg1"
   width="1182"
   height="591"
   viewBox="0 0 1182 591"
   sodipodi:docname="JUmPER01.svg"
   inkscape:version="1.4.2 (f4327f4, 2025-05-13)"
   xmlns:inkscape="http://www.inkscape.org/namespaces/inkscape"
   xmlns:sodipodi="http://sodipodi.sourceforge.net/DTD/sodipodi-0.dtd"
   xmlns="http://www.w3.org/2000/svg"
   xmlns:svg="http://www.w3.org/2000/svg">
  <defs
     id="defs1" />
  <sodipodi:namedview
     id="namedview1"
     pagecolor="#acacac"
     bordercolor="#000000"
     borderopacity="0.25"
     inkscape:showpageshadow="2"
     inkscape:pageopacity="0.0"
     inkscape:pagecheckerboard="0"
     inkscape:deskcolor="#d1d1d1"
     inkscape:zoom="1"
     inkscape:cx="346.5"
     inkscape:cy="274.5"
     inkscape:window-width="1920"
     inkscape:window-height="1009"
     inkscape:window-x="1912"
     inkscape:window-y="-8"
     inkscape:window-maximized="1"
     inkscape:current-layer="g1" />
  <g
     inkscape:groupmode="layer"
     inkscape:label="Image"
     id="g1">
    <path
       style="display:inline;fill:#ffffff;fill-opacity:1;stroke:#000000;stroke-opacity:1"
       d="m 288.79664,562.48444 c -23.34475,-2.40438 -44.86984,-12.34358 -60.38506,-27.88276 -9.59044,-9.60525 -15.28986,-18.43689 -20.10827,-31.15916 -3.1303,-8.26507 -3.20576,-8.85703 -3.59041,-28.16351 -0.44312,-22.24145 0.45104,-27.1654 5.87772,-32.36753 2.83478,-2.71748 3.65364,-2.93415 12.28927,-3.25174 8.76809,-0.32246 9.41521,-0.20303 12.36937,2.28273 1.71448,1.44264 3.57595,4.07076 4.1366,5.84026 0.56064,1.7695 1.48735,11.31727 2.05933,21.21727 0.57199,9.9 1.54465,19.8 2.16147,22 3.2263,11.50712 12.89078,23.89796 23.47988,30.10359 9.55293,5.59839 16.97763,7.59996 30.25542,8.15634 15.05974,0.63106 20.54574,-0.42395 32.79567,-6.30691 15.02546,-7.21588 25.67376,-20.05341 28.26945,-34.0815 1.56784,-8.4732 2.2493,-35.45326 3.14133,-124.37152 0.49883,-49.72399 1.30545,-89.26352 1.89724,-93 5.12838,-32.38014 15.51638,-46.43389 38.73701,-52.40667 14.11066,-3.62953 20.66043,-3.85537 129.86241,-4.47765 121.1583,-0.6904 112.53569,-0.0967 114.13645,-7.85811 0.42625,-2.06666 0.78478,-26.25757 0.79674,-53.75757 0.0217,-49.89706 0.0171,-50.00863 -2.21903,-54.192068 -2.61453,-4.891305 -6.88611,-8.290509 -13.45118,-10.704073 -14.50753,-5.333508 -21.51401,-16.932002 -20.61183,-34.120738 0.49999,-9.525996 3.10742,-15.788565 10.10543,-24.271398 6.45889,-7.829315 7.6206,-8.43297 14.68969,-7.633193 l 6.00866,0.679802 0.0239,22.120834 c 0.0247,22.913926 0.72912,29.23582 3.48184,31.248659 2.67482,1.955876 14.45381,2.685224 18.9943,1.176114 l 4,-1.329469 -0.38087,-15.250249 -0.38087,-15.250249 3.07586,-6.236986 c 5.62773,-11.411489 14.85673,-18.667311 23.80446,-18.715024 l 4.11859,-0.02196 0.73781,24.75 c 0.76173,25.552343 1.34317,28.980014 5.23803,30.878819 0.98285,0.479149 29.30265,1.096181 62.93289,1.371181 58.34193,0.477071 61.24239,0.587357 63.25,2.404988 1.93621,1.752987 2.10301,2.949845 2.09045,15 -0.008,7.20225 -0.26526,14.03203 -0.57278,15.17729 -0.61883,2.30468 -1.84313,2.89023 -28.41357,13.58939 -24.21805,9.75192 -51.59124,19.97798 -63.5,23.72228 -5.5,1.72929 -11.92208,3.85147 -14.2713,4.71595 -6.81716,2.50863 -7.41955,4.56783 -8.30513,28.3901 -0.41914,11.275 -1.27975,23.875 -1.91246,28 -2.96306,19.31776 -11.38788,43.45655 -20.53249,58.8297 -13.36951,22.4757 -35.6747,46.55248 -39.43272,42.56467 -0.46356,-0.49191 -1.81477,-4.49437 -3.00271,-8.89437 -2.48262,-9.1954 -4.31766,-12.5 -6.94124,-12.5 -1.27418,0 -2.04694,0.97493 -2.47695,3.125 -0.34375,1.71875 -0.67991,21.63125 -0.74701,44.25 -0.0671,22.61875 -0.40461,47.425 -0.75,55.125 L 641,405 l -2.83695,0.32481 c -4.06277,0.46516 -13.31278,-4.37931 -18.75702,-9.82354 -5.81158,-5.81159 -8.55106,-12.89674 -9.9673,-25.77856 -1.77366,-16.13289 -2.80755,-21.42027 -4.56913,-23.3668 -2.10664,-2.32781 -8.46009,-2.42235 -24.08219,-0.35837 -12.22308,1.61491 -15.34078,1.13978 -17.36727,-2.64677 -0.66081,-1.23473 -3.30599,-8.54137 -5.87817,-16.23699 -2.57219,-7.69561 -5.17842,-14.15926 -5.79163,-14.36367 -3.41856,-1.13952 -3.5634,2.66768 -4.0498,106.45638 l -0.47915,102.23946 2.5713,3.37114 2.5713,3.37115 69.73411,0.72321 69.7341,0.7232 4.86981,2.46771 c 2.67839,1.35725 6.58655,4.0187 8.68479,5.91434 4.56427,4.12354 9.82224,13.60252 10.97855,19.79195 l 0.83564,4.47294 -26.1005,0.70943 c -14.35527,0.39019 -36.67549,0.44427 -49.60049,0.12018 -30.29541,-0.75964 -121.32936,-0.73458 -135.13964,0.0372 l -10.63965,0.59459 -0.59871,-4.8715 c -1.18918,-9.67593 -1.84221,-113.66222 -0.79421,-126.46792 1.11201,-13.58795 0.47686,-19.04338 -2.57213,-22.09237 -1.03778,-1.03778 -5.83199,-3.23747 -10.6538,-4.8882 -10.61788,-3.635 -17.60434,-7.7903 -35.04183,-20.84165 -22.83236,-17.08923 -28.92008,-20.37141 -34.49973,-18.6005 -4.5667,1.44942 -4.88315,3.30032 -7.01552,41.03382 -2.68644,47.53835 -3.92349,65.41656 -5.15384,74.48532 -4.97008,36.63385 -25.27108,62.37355 -59.13819,74.98149 -14.31815,5.33032 -34.79398,7.71906 -51.45611,6.00295 z M 695.25914,116.5054 c 4.31613,-2.63157 7.23252,-7.61051 7.23712,-12.3554 0.005,-5.59001 -5.16407,-10.65 -10.88048,-10.65 -6.17722,0 -10.21857,4.014373 -10.87037,10.79781 -1.10608,11.51113 5.93823,17.43614 14.51373,12.20759 z"
       id="path6" />
  </g>
</svg>
